<?xml version="1.0" encoding="UTF-8"?>
<svg version="1.1" xmlns="http://www.w3.org/2000/svg" width="2000" height="264">
<path d="M0 0 C3.73757413 3.05108092 7.16166825 6.06019084 10.29296875 9.734375 C13.84159803 13.8422709 17.52120123 17.80589001 21.25 21.75 C27.55708081 28.4495214 33.79812306 35.20304042 40 42 C41.81190205 43.97971931 43.62427378 45.95899483 45.4375 47.9375 C45.88681885 48.42806885 46.3361377 48.9186377 46.79907227 49.42407227 C49.21919606 52.06455946 51.64499645 54.69961349 54.078125 57.328125 C54.59705322 57.88894775 55.11598145 58.44977051 55.65063477 59.02758789 C56.62948652 60.08480998 57.6090634 61.14136148 58.58959961 62.19702148 C62.79663786 66.74080003 66.88272897 71.3680701 71 76 C71.33 58.51 71.66 41.02 72 23 C82.23 23 92.46 23 103 23 C102.95697754 25.70840088 102.91395508 28.41680176 102.86962891 31.20727539 C102.73703946 40.2076964 102.68272149 49.20740545 102.66578102 58.20874882 C102.6531612 63.66095319 102.61510135 69.11038478 102.51660156 74.56176758 C102.42230968 79.83418274 102.39784945 85.10292886 102.41953659 90.37609673 C102.41592785 92.37626978 102.3881647 94.37656575 102.33458328 96.37602425 C102.085659 106.2298338 102.14822751 113.91179107 108.89957237 121.58318996 C111.29012618 124.01782947 113.76627491 126.31042912 116.34992599 128.53822136 C118.59505351 130.52715 120.54434222 132.73005276 122.5 135 C126.82829341 139.84318334 131.26223702 144.58332374 135.70043945 149.32543945 C141.17595701 155.1788334 146.59408904 161.08228682 152 167 C153.35610123 168.48206709 154.71275043 169.96362719 156.07006836 171.44458008 C156.97550431 172.43310728 157.87997828 173.42251655 158.78344727 174.4128418 C161.27119104 177.13530364 163.78261549 179.83158777 166.32421875 182.50390625 C166.874729 183.0872876 167.42523926 183.67066895 167.99243164 184.27172852 C169.05726196 185.39898047 170.12782515 186.52085257 171.20483398 187.63647461 C173.1156681 189.66751512 174.79349358 191.60045497 176.078125 194.0859375 C175.95229027 197.16888833 174.22731871 198.45189614 172.125 200.625 C171.29871094 201.49769531 170.47242188 202.37039062 169.62109375 203.26953125 C168.75613281 204.17058594 167.89117187 205.07164062 167 206 C165.38878406 207.76442189 163.78430464 209.53502529 162.1875 211.3125 C161.47980469 212.09238281 160.77210938 212.87226563 160.04296875 213.67578125 C157.94830256 216.05881449 155.96288965 218.5077918 154 221 C149.43212283 220.64194787 147.14236019 217.27956612 144.3125 214.0625 C143.78140625 213.47275391 143.2503125 212.88300781 142.703125 212.27539062 C141.12780648 210.52356051 139.5633266 208.76252881 138 207 C136.5009585 205.33247119 135.00106098 203.66571118 133.5 202 C132.7884375 201.2059375 132.076875 200.411875 131.34375 199.59375 C128.58531613 196.54108319 125.79497956 193.51917344 123 190.5 C118.72022376 185.87649899 114.48241345 181.21907612 110.27734375 176.52734375 C107.70190242 173.66917816 105.10316201 170.83287917 102.5 168 C99.16671251 164.37256511 95.85053693 160.73106924 92.5625 157.0625 C89.07551903 153.17629402 85.54668015 149.33157193 82 145.5 C77.72025045 140.87647389 73.48241392 136.21907665 69.27734375 131.52734375 C66.70190242 128.66917816 64.10316201 125.83287917 61.5 123 C58.16671251 119.37256511 54.85053693 115.73106924 51.5625 112.0625 C48.07551903 108.17629402 44.54668015 104.33157193 41 100.5 C36.72025045 95.87647389 32.48241392 91.21907665 28.27734375 86.52734375 C25.70190138 83.669177 23.103044 80.83298854 20.5 78 C13.55141481 70.43247333 6.64467234 62.83730584 0 55 C-1.10611998 56.10611998 -2.2118519 57.2126291 -3.31640625 58.3203125 C-4.56917776 59.57017734 -5.82795574 60.81402751 -7.08984375 62.0546875 C-11.18422378 66.10007495 -15.10994536 70.20199717 -18.85546875 74.5703125 C-21.83448095 77.94544108 -24.91942437 81.21768898 -28 84.5 C-32.1388974 88.91339144 -36.23018973 93.34509462 -40.1796875 97.9296875 C-44.17886135 102.47810412 -48.33766708 106.88594391 -52.45361328 111.32861328 C-58.92126556 118.31906915 -65.33318225 125.3586692 -71.6953125 132.4453125 C-76.56557447 137.84387407 -81.4965724 143.18730431 -86.41601562 148.54101562 C-91.13225563 153.67473745 -95.84282591 158.81247157 -100.5 164 C-106.08919783 170.22569011 -111.75524058 176.38053078 -117.41601562 182.54101562 C-122.86603856 188.47347489 -128.29339945 194.42429436 -133.671875 200.421875 C-135.38214974 202.3158034 -137.09974229 204.2008641 -138.828125 206.078125 C-139.55612305 206.86896484 -139.55612305 206.86896484 -140.29882812 207.67578125 C-141.67188157 209.1652578 -143.04682182 210.65299437 -144.421875 212.140625 C-147.03157582 215.03502046 -149.52483845 217.99063092 -152 221 C-156.5446663 220.63384205 -158.80840686 217.33026117 -161.625 214.125 C-162.14481445 213.5472583 -162.66462891 212.9695166 -163.20019531 212.37426758 C-164.27452973 211.17945469 -165.34547244 209.98158382 -166.41308594 208.78076172 C-168.39558997 206.5560872 -170.40249157 204.3544169 -172.41162109 202.15380859 C-174.27961994 200.10725604 -176.13979407 198.05363442 -178 196 C-176.39607224 192.13224277 -173.77368526 189.37344616 -170.9375 186.375 C-169.93447805 185.29856622 -168.93187934 184.22173793 -167.9296875 183.14453125 C-167.18283691 182.34523193 -167.18283691 182.34523193 -166.42089844 181.52978516 C-164.44096093 179.39812047 -162.50103448 177.2318124 -160.5625 175.0625 C-156.56551622 170.6079009 -152.50925591 166.21081521 -148.44384766 161.81884766 C-144.68272573 157.75118412 -140.96790461 153.6443837 -137.26953125 149.51953125 C-132.41443591 144.12962334 -127.49220458 138.80048195 -122.58398438 133.45898438 C-117.86774437 128.32526255 -113.15717409 123.18752843 -108.5 118 C-102.91080217 111.77430989 -97.24475942 105.61946922 -91.58398438 99.45898438 C-86.8876188 94.34689626 -82.1967486 89.23114844 -77.5625 84.0625 C-73.56551622 79.6079009 -69.50925591 75.21081521 -65.44384766 70.81884766 C-61.68272573 66.75118412 -57.96790461 62.6443837 -54.26953125 58.51953125 C-49.41443591 53.12962334 -44.49220458 47.80048195 -39.58398438 42.45898438 C-34.13022684 36.52245993 -28.70021353 30.56660649 -23.31640625 24.56640625 C-20.2442471 21.16268186 -17.14123199 17.78778321 -14.03540039 14.41479492 C-10.47971423 10.54564944 -7.00002738 6.61541621 -3.55859375 2.64453125 C-2 1 -2 1 0 0 Z " fill="#FFFFFF" transform="translate(198,1)"/>
<path d="M0 0 C1.32 0 2.64 0 4 0 C4.26593964 0.53409988 4.53187927 1.06819977 4.80587769 1.6184845 C7.62713165 7.28347868 10.45143211 12.946947 13.27734375 18.60961914 C14.32529334 20.71048264 15.37251894 22.81170746 16.41894531 24.91333008 C22.010019 36.14108603 27.65151756 47.33253936 33.52388 58.41610718 C37.29867858 65.54291387 40.95938974 72.72257427 44.5625 79.9375 C44.87816925 80.5681134 45.1938385 81.19872681 45.51907349 81.84844971 C50.97815497 92.7679847 56.13830106 103.8009645 61 115 C64.99249787 107.12068803 68.91347144 99.2122273 72.7041626 91.23362732 C81.20819853 73.35683048 90.10389307 55.67593638 98.97576904 37.97979736 C101.12990056 33.68195571 103.28163027 29.38291187 105.43359375 25.08398438 C109.62011515 16.7215127 113.80918838 8.36032238 118 0 C119.32 0 120.64 0 122 0 C129.09287716 31.46471133 135.84257772 63.00379521 142.60153008 94.54147947 C143.85840184 100.40482874 145.11863163 106.26745292 146.37949085 112.12994581 C147.60899574 117.84740231 148.83615275 123.56535944 150.06147289 129.28371423 C150.78761425 132.6722798 151.51470821 136.06063389 152.24423218 139.44847298 C153.04904389 143.18635659 153.8489805 146.9252739 154.6484375 150.66430664 C154.88833908 151.77515625 155.12824066 152.88600586 155.37541199 154.03051758 C155.59103287 155.04279922 155.80665375 156.05508087 156.02880859 157.09803772 C156.21752533 157.9776822 156.40624207 158.85732668 156.60067749 159.76362705 C157 162 157 162 157 165 C148.42 165 139.84 165 131 165 C130.39937744 162.19846436 129.79875488 159.39692871 129.17993164 156.51049805 C127.19776582 147.26611702 125.21373646 138.02213667 123.22878361 128.77835369 C122.02507665 123.17249664 120.8220026 117.56650531 119.62036133 111.96020508 C118.46122753 106.55233753 117.30044906 101.14482543 116.13851738 95.73755836 C115.69496195 93.67197114 115.25200467 91.60625538 114.80964851 89.540411 C114.19115791 86.65249581 113.57056423 83.7650402 112.94946289 80.87768555 C112.7660434 80.01885269 112.5826239 79.16001984 112.39364624 78.27516174 C111.71431416 75.12534972 111.01984476 72.05953428 110 69 C109.56171875 70.1653125 109.1234375 71.330625 108.671875 72.53125 C101.82061654 90.3796093 93.11648178 107.23458615 84.16308594 124.10302734 C79.66121004 132.59365825 75.27190871 141.14220893 70.875 149.6875 C70.48502838 150.44529755 70.09505676 151.20309509 69.69326782 151.9838562 C67.46104815 156.32199015 65.2300233 160.66073662 63 165 C61.20751953 164.87451172 61.20751953 164.87451172 59 164 C57.32763672 161.43408203 57.32763672 161.43408203 55.6796875 158.0078125 C55.37974884 157.39525101 55.07981018 156.78268951 54.77078247 156.15156555 C54.12796058 154.83482418 53.49152216 153.51495112 52.86083984 152.19235229 C51.53312367 149.40806934 50.17530497 146.63884348 48.81939697 143.86820984 C48.14337994 142.48564826 47.46901963 141.10227537 46.79632568 139.71809387 C44.29407909 134.57171951 41.69593696 129.48537168 39 124.4375 C38.22230349 122.97154125 37.44497291 121.50538833 36.66796875 120.0390625 C36.25595215 119.26208008 35.84393555 118.48509766 35.41943359 117.68457031 C32.36331431 111.90454148 29.32967353 106.11293839 26.3125 100.3125 C25.98602478 99.68491791 25.65954956 99.05733582 25.32318115 98.41073608 C20.92166496 89.92933284 16.76420197 81.40602526 13.1015625 72.578125 C12.23779753 70.11366098 12.23779753 70.11366098 11 69 C4.73 100.68 -1.54 132.36 -8 165 C-16.58 165 -25.16 165 -34 165 C-32.87499838 153.74998377 -32.87499838 153.74998377 -31.84367371 148.80018616 C-31.61248337 147.67798676 -31.38129303 146.55578735 -31.14309692 145.39958191 C-30.8911557 144.20303482 -30.63921448 143.00648773 -30.37963867 141.77368164 C-30.11281784 140.48600891 -29.84599701 139.19833618 -29.5710907 137.87164307 C-28.84411648 134.36389997 -28.11082032 130.85750619 -27.37631774 127.3513329 C-26.60307645 123.65478658 -25.83572623 119.9570175 -25.06770325 116.25938416 C-23.6104374 109.24787063 -22.14788847 102.23747014 -20.68343574 95.2274546 C-19.03187235 87.32043864 -17.38639912 79.41215943 -15.7413677 71.50378239 C-12.64577914 56.62314785 -9.54766092 41.74304036 -6.4336853 26.86624146 C-5.52891572 22.54195862 -4.63185805 18.21624277 -3.74429321 13.88839722 C-3.55789182 12.98550933 -3.37149042 12.08262144 -3.1794405 11.15237331 C-2.84315679 9.52267485 -2.50971278 7.89238655 -2.17977428 6.26139164 C-1.11264999 1.11264999 -1.11264999 1.11264999 0 0 Z " fill="#FFFFFF" transform="translate(831,55)"/>
<path d="M0 0 C23.47092067 -0.63938944 45.26669201 6.6592958 62.58935547 22.69067383 C77.64283319 37.31327838 86.16031134 58.27045142 86.94140625 79.15625 C86.98136719 80.06246094 87.02132813 80.96867187 87.0625 81.90234375 C87.58771169 105.166132 80.89794504 127.81831474 64.94140625 145.15625 C53.48906434 157.06304992 40.67829853 163.81806653 24.94140625 168.15625 C23.61109375 168.52556641 23.61109375 168.52556641 22.25390625 168.90234375 C-0.01988726 173.94875009 -23.95853437 168.82041658 -43.2109375 157.1015625 C-47.92702724 153.87987157 -52.02269297 150.18531027 -56.05859375 146.15625 C-57.10660156 145.12564453 -57.10660156 145.12564453 -58.17578125 144.07421875 C-74.71459009 126.73099313 -79.78401442 103.55249364 -79.30859375 80.23046875 C-78.3775137 55.70116482 -68.32936862 35.67104592 -50.69140625 18.90625 C-36.55278991 6.71942918 -18.39908261 0.93992759 0 0 Z M-38.05859375 42.15625 C-51.10751107 59.2876501 -53.26888406 79.62870651 -50.77001953 100.57519531 C-48.29171126 115.01924164 -40.07922743 128.12811055 -28.37109375 136.84375 C-14.93888651 145.70415176 -0.51574701 148.60730565 15.375 145.97265625 C31.09861173 142.37327525 42.81905779 133.35395293 51.40234375 119.859375 C60.43459636 103.54657938 61.62652573 82.42778418 57.11328125 64.56640625 C51.69649675 48.80356334 43.79163837 37.32387767 28.94140625 29.15625 C5.71169127 19.51425108 -20.70179592 23.02466695 -38.05859375 42.15625 Z " fill="#FFFFFF" transform="translate(1510.05859375,51.84375)"/>
<path d="M0 0 C16.49731241 13.89961575 26.67743368 33.49392914 29 55 C30.27300804 80.14441467 26.89349402 104.52350684 9.6875 124.1875 C8.14201158 125.8080624 6.57953632 127.41260529 5 129 C4.27425781 129.76054687 3.54851562 130.52109375 2.80078125 131.3046875 C-13.09870921 146.9072435 -34.46142006 152.27440173 -56.16674805 152.24658203 C-78.49386122 151.95059016 -98.30383571 143.29730244 -114.28125 127.8046875 C-131.77305168 109.75998404 -136.66014991 87.34404366 -136.46875 63.03027344 C-135.90735176 39.78487746 -127.83653179 19.17801896 -110.875 2.8125 C-79.9259649 -24.11829021 -32.19825856 -25.19372512 0 0 Z M-94.84765625 23.3984375 C-107.73434012 38.97471964 -110.63037627 58.44210169 -108.80957031 78.05078125 C-106.79319435 94.47807276 -98.88303648 108.17087125 -85.9375 118.375 C-72.73795565 127.61728451 -58.23215093 130.34228924 -42.421875 127.71875 C-27.52063826 124.58880986 -15.82282492 116.37965354 -7.3125 103.8125 C2.42039914 87.72921152 3.92541807 67.46035666 0.24609375 49.2734375 C-3.84669465 33.55302013 -12.03407505 20.86911245 -26.16015625 12.46875 C-49.16012398 0.57330589 -76.99479702 4.24350588 -94.84765625 23.3984375 Z " fill="#FFFFFF" transform="translate(1382,70)"/>
<path d="M0 0 C77.89278752 0 77.89278752 0 91.0234375 13.00390625 C100.35678469 22.96059973 101.39980728 32.37480147 101.21484375 45.53515625 C100.87884838 55.53780094 97.12956517 63.46755042 90.4375 70.8125 C88.35781765 72.6788816 86.24510665 74.34346253 84 76 C85.00160156 76.4846875 86.00320313 76.969375 87.03515625 77.46875 C98.75260213 83.30245453 105.01939601 88.55115902 110.0546875 100.97265625 C113.97779973 113.5363421 112.21746932 129.04816133 107 141 C101.44148735 150.84697938 92.55175794 157.33451065 82 161 C55.31109938 168.22134853 27.38833636 165 0 165 C0 110.55 0 56.1 0 0 Z M26 22 C26 37.51 26 53.02 26 69 C30.785 69.061875 35.57 69.12375 40.5 69.1875 C41.99337891 69.21481201 43.48675781 69.24212402 45.02539062 69.27026367 C53.83828221 69.32537387 59.8327959 68.80484891 67.25 63.8125 C73.02757361 57.9036179 75.12563582 51.27085391 75.25 43.125 C75.16108036 36.46411023 73.78153243 32.54304226 69.0625 27.8125 C60.53595561 21.15421571 49.04426811 21.5962821 38.75 21.8125 C32.43875 21.9053125 32.43875 21.9053125 26 22 Z M26 90 C26 107.49 26 124.98 26 143 C31.0325 143.061875 36.065 143.12375 41.25 143.1875 C42.81137695 143.21481201 44.37275391 143.24212402 45.98144531 143.27026367 C58.190652 143.34232868 69.4301098 142.28984119 79 134 C84.05376672 128.1687307 85.4921621 120.63689853 85.25 113.0390625 C84.41540625 106.23190721 81.99662841 100.77455604 77 96 C66.60887405 88.8279928 53.35978334 89.73532494 41.3125 89.875 C36.259375 89.91625 31.20625 89.9575 26 90 Z " fill="#FFFFFF" transform="translate(1113,55)"/>
<path d="M0 0 C73.46502836 0 73.46502836 0 91.29296875 16.06640625 C101.12818437 26.38138849 103.90352555 38.42398797 104.03125 52.42578125 C103.38315531 65.95475788 98.72502163 78.95697025 88.6875 88.3125 C84.45559337 91.86068022 79.94653245 94.56766253 75 97 C76.41885985 101.90563246 78.61419244 106.040375 81.25 110.375 C82.15301535 111.88501524 83.05531725 113.39545729 83.95703125 114.90625 C84.68913818 116.12828125 84.68913818 116.12828125 85.43603516 117.375 C90.11054966 125.2208289 94.67168926 133.13445682 99.26611328 141.02734375 C100.95179789 143.91736005 102.64489479 146.80290969 104.33984375 149.6875 C105.35164349 151.41661927 106.36336654 153.14578343 107.375 154.875 C108.08064087 156.06971924 108.08064087 156.06971924 108.80053711 157.28857422 C112 162.77354137 112 162.77354137 112 165 C102.1 165 92.2 165 82 165 C80.94683594 163.01484375 79.89367187 161.0296875 78.80859375 158.984375 C77.73555298 156.96267905 76.66232401 154.94108312 75.58908081 152.91949463 C74.82288178 151.4760313 74.05686947 150.03246884 73.29104614 148.58880615 C69.06172171 140.61649442 64.82075771 132.65105795 60.53125 124.7109375 C59.83404507 123.41830543 59.13686036 122.12566245 58.43969727 120.83300781 C57.12174484 118.38979515 55.79842793 115.94958586 54.47241211 113.51074219 C53.88210205 112.41665039 53.29179199 111.32255859 52.68359375 110.1953125 C52.16337646 109.23641113 51.64315918 108.27750977 51.10717773 107.28955078 C50 105 50 105 50 103 C42.08 103 34.16 103 26 103 C26 123.46 26 143.92 26 165 C17.42 165 8.84 165 0 165 C0 110.55 0 56.1 0 0 Z M26 22 C26 41.8 26 61.6 26 82 C50.45449808 83.09350795 50.45449808 83.09350795 70.71484375 72.40234375 C77.52435919 65.09335285 78.97411885 56.7960147 79 47 C78.49673866 40.03092452 75.88284986 34.96984941 71 30 C58.31155584 19.3106105 41.48178099 22 26 22 Z " fill="#FFFFFF" transform="translate(611,55)"/>
<path d="M0 0 C72.65048544 0 72.65048544 0 91.6875 17.125 C101.32817242 27.28133629 103.43022315 40.18313902 103.18359375 53.6171875 C102.4640915 66.8743991 97.95638749 77.97213039 88.70703125 87.58203125 C85.38543031 90.54894464 81.95299511 92.78772254 78.03125 94.87890625 C75.86070894 95.9543623 75.86070894 95.9543623 74 98 C79.47563133 107.99239634 85.0674014 117.90980405 90.8125 127.75 C91.39676758 128.75119873 91.98103516 129.75239746 92.58300781 130.78393555 C95.62246347 135.97848313 98.68704164 141.15661682 101.78515625 146.31640625 C102.38803467 147.32413086 102.99091309 148.33185547 103.61206055 149.37011719 C104.76526329 151.29483669 105.92406441 153.21621575 107.08911133 155.13378906 C107.60368896 155.99327148 108.1182666 156.85275391 108.6484375 157.73828125 C109.10395996 158.49149658 109.55948242 159.24471191 110.02880859 160.02075195 C111 162 111 162 111 165 C101.1 165 91.2 165 81 165 C79.98421875 163.01742187 78.9684375 161.03484375 77.921875 158.9921875 C71.03041676 145.56469442 64.11310411 132.16332567 56.80761719 118.95458984 C56.36063477 118.14586426 55.91365234 117.33713867 55.453125 116.50390625 C55.07317383 115.82142822 54.69322266 115.1389502 54.30175781 114.43579102 C52.46269492 110.99461875 50.74492515 107.4898503 49 104 C41.08 103.67 33.16 103.34 25 103 C25 123.46 25 143.92 25 165 C16.75 165 8.5 165 0 165 C0 110.55 0 56.1 0 0 Z M25 22 C25 41.8 25 61.6 25 82 C49.60879625 83.09068712 49.60879625 83.09068712 70.78125 72.25 C76.8597661 64.86043141 78.64221382 56.37888276 78.33984375 46.95703125 C77.55842178 40.15776194 75.36060443 34.87848115 70.375 30.125 C57.00499553 19.52895907 41.7002127 22 25 22 Z " fill="#FFFFFF" transform="translate(1864,55)"/>
<path d="M0 0 C8.25 0 16.5 0 25 0 C25.33 23.1 25.66 46.2 26 70 C34.02395204 59.68349023 42.04317223 49.3675885 50 39 C51.66609253 36.83289153 53.33305199 34.66645047 55 32.5 C55.83334905 31.41667876 56.66668241 30.33334544 57.5 29.25 C59.16666667 27.08333333 60.83333333 24.91666667 62.5 22.75 C62.91080811 22.21270264 63.32161621 21.67540527 63.74487305 21.12182617 C64.58270622 20.03921077 65.43327916 18.96633783 66.29614258 17.90356445 C68.51968051 15.13205761 70.29001551 12.53477341 71.76171875 9.29296875 C73.844237 5.16698635 75.68964164 2.00849641 80 0 C90.20311784 -1.64145223 100.74477204 -0.7873585 111 0 C109.24237075 3.6721459 107.07042424 6.65683161 104.5625 9.875 C103.90205688 10.7249353 103.90205688 10.7249353 103.22827148 11.59204102 C101.82289284 13.39789433 100.41213716 15.19942814 99 17 C98.54882812 17.57637207 98.09765625 18.15274414 97.6328125 18.74658203 C94.89172946 22.24720651 92.14299328 25.74174618 89.39111328 29.23388672 C87.0912577 32.15371038 84.79578631 35.07697644 82.5 38 C79.74047961 41.51345552 76.98001675 45.02614687 74.21484375 48.53515625 C68.08766351 56.314646 62.02070593 64.13782002 56 72 C61.40715556 80.8151867 67.33394648 89.21334651 73.32470703 97.63623047 C76.23593514 101.74385369 79.11663273 105.87279611 82 110 C86.31878766 116.17702849 90.64903326 122.34559541 95 128.5 C99.51357376 134.88634041 104.01219241 141.28302459 108.5 147.6875 C109.38171875 148.94433594 109.38171875 148.94433594 110.28125 150.2265625 C111.85951749 152.48070842 113.43118069 154.73927217 115 157 C115.42667969 157.6079541 115.85335938 158.2159082 116.29296875 158.84228516 C119 162.76866776 119 162.76866776 119 165 C114.75048792 165.29939657 110.50671289 165.51550918 106.24975586 165.65917969 C104.80661082 165.71910266 103.36418161 165.80069404 101.92358398 165.90527344 C97.04150721 166.25048788 92.75651665 166.26836184 88 165 C84.02357658 161.50481266 81.57932385 157.5826787 79 153 C77.80421037 151.19993721 76.59774171 149.40686464 75.375 147.625 C74.72660156 146.63886719 74.07820313 145.65273437 73.41015625 144.63671875 C70.26548964 139.86678064 67.0339269 135.15576383 63.8125 130.4375 C63.16998291 129.49600098 62.52746582 128.55450195 61.86547852 127.58447266 C56.98780752 120.44028015 52.10369632 113.3004772 47.2121582 106.16577148 C44.4464879 102.1287452 41.7040112 98.078604 39 94 C35.14444648 95.51622891 33.3050235 97.812399 30.8125 101.0625 C30.11769531 101.96097656 29.42289063 102.85945313 28.70703125 103.78515625 C28.14371094 104.51605469 27.58039063 105.24695313 27 106 C26.67 106.33 26.34 106.66 26 107 C25.87669912 108.8096774 25.82209817 110.62407837 25.79467773 112.43774414 C25.77473251 113.59887222 25.75478729 114.76000031 25.73423767 115.95631409 C25.70916893 117.85159096 25.70916893 117.85159096 25.68359375 119.78515625 C25.66281265 121.07111191 25.64203156 122.35706757 25.62062073 123.68199158 C25.56533824 127.10635904 25.51595639 130.5307875 25.46777344 133.95526123 C25.41760335 137.44744314 25.3618939 140.9395361 25.30664062 144.43164062 C25.19898358 151.28768502 25.09806717 158.1438118 25 165 C16.75 165 8.5 165 0 165 C0 110.55 0 56.1 0 0 Z " fill="#FFFFFF" transform="translate(1623,55)"/>
<path d="M0 0 C69.61430921 0 69.61430921 0 84.55078125 14.296875 C95.83497839 27.55808781 97.27071208 43.30511608 96 60 C94.20592522 73.64089918 87.80682342 85.44904381 77 94 C60.91717903 104.15644102 44.90548921 104 26 104 C26 124.13 26 144.26 26 165 C17.42 165 8.84 165 0 165 C0 110.55 0 56.1 0 0 Z M26 23 C26 42.14 26 61.28 26 81 C48.46176962 81.28950999 48.46176962 81.28950999 65.3125 69.75 C69.74385624 62.52853057 71.04713448 54.35380616 70 46 C68.3651837 39.4079988 66.09306324 33.65018818 61 29 C48.7810058 21.70834005 42.06420186 23 26 23 Z " fill="#FFFFFF" transform="translate(493,55)"/>
<path d="M0 0 C21.12 0 42.24 0 64 0 C64 39.27 64 78.54 64 119 C42.88 119 21.76 119 0 119 C0 79.73 0 40.46 0 0 Z " fill="#FFFFFF" transform="translate(166,139)"/>
<path d="M0 0 C24.09 0 48.18 0 73 0 C73 7.59 73 15.18 73 23 C57.49 23 41.98 23 26 23 C26 37.52 26 52.04 26 67 C38.54 67 51.08 67 64 67 C64 74.59 64 82.18 64 90 C51.46 90 38.92 90 26 90 C26 107.16 26 124.32 26 142 C44.15 142 62.3 142 81 142 C81 149.59 81 157.18 81 165 C54.27 165 27.54 165 0 165 C0 110.55 0 56.1 0 0 Z " fill="#FFFFFF" transform="translate(1759,55)"/>
<path d="M0 0 C24.09 0 48.18 0 73 0 C73 7.59 73 15.18 73 23 C57.49 23 41.98 23 26 23 C26 37.52 26 52.04 26 67 C38.54 67 51.08 67 64 67 C64 74.59 64 82.18 64 90 C51.46 90 38.92 90 26 90 C26 107.16 26 124.32 26 142 C43.82 142 61.64 142 80 142 C80 149.59 80 157.18 80 165 C53.6 165 27.2 165 0 165 C0 110.55 0 56.1 0 0 Z " fill="#FFFFFF" transform="translate(1009,55)"/>
<path d="M0 0 C8.58 0 17.16 0 26 0 C26 54.45 26 108.9 26 165 C17.42 165 8.84 165 0 165 C0 110.55 0 56.1 0 0 Z " fill="#FFFFFF" transform="translate(748,55)"/>
</svg>
