<svg fill="none" height="32" viewBox="0 0 189 32" width="189" xmlns="http://www.w3.org/2000/svg" xmlns:xlink="http://www.w3.org/1999/xlink"><clipPath id="a"><path d="m.336914 0h188.601v32h-188.601z"/></clipPath><mask id="b" height="33" maskUnits="userSpaceOnUse" width="189" x="0" y="-1"><path d="m.734375-.228334h187.846625v31.872834h-187.846625z" fill="#fff"/></mask><mask id="c" height="33" maskUnits="userSpaceOnUse" width="189" x="0" y="-1"><path d="m.734375 31.6455h187.846625v-31.872856h-187.846625z" fill="#fff"/></mask><mask id="d" height="33" maskUnits="userSpaceOnUse" width="189" x="0" y="-1"><path d="m.734375-.228334h187.846625v31.872834h-187.846625z" fill="#fff"/></mask><mask id="e" height="32" maskUnits="userSpaceOnUse" width="189" x="0" y="0"><path d="m.735352.399601h187.806648v31.204899h-187.806648z" fill="#fff"/></mask><mask id="f" height="33" maskUnits="userSpaceOnUse" width="189" x="0" y="-1"><path d="m.735352 31.6455h187.846648v-31.872856h-187.846648z" fill="#fff"/></mask><mask id="g" height="33" maskUnits="userSpaceOnUse" width="189" x="0" y="-1"><path d="m.734375-.228334h187.846625v31.872834h-187.846625z" fill="#fff"/></mask><mask id="h" height="33" maskUnits="userSpaceOnUse" width="189" x="0" y="-1"><path d="m.734375 31.6455h187.846625v-31.872856h-187.846625z" fill="#fff"/></mask><g clip-path="url(#a)"><g mask="url(#b)"><g fill="#000" mask="url(#c)"><path d="m74.3994 3.26294c0-1.58212 1.277-2.861783 2.849-2.861783 1.5773 0 2.8592 1.279663 2.8592 2.861783 0 1.58007-1.2819 2.86108-2.8592 2.86108-1.572 0-2.849-1.28101-2.849-2.86108z"/><path d="m119.437 22.2981c0-1.5828 1.276-2.8638 2.848-2.8638 1.576 0 2.858 1.281 2.858 2.8638 0 1.5787-1.282 2.8611-2.858 2.8611-1.572 0-2.848-1.2824-2.848-2.8611z"/><path d="m27.5534 21.0604c-2.4583 0-4.1667-1.9524-4.1667-4.7423 0-2.7892 1.7084-4.7402 4.1667-4.7402 2.4724 0 4.1995 1.951 4.1995 4.7402 0 2.834-1.6911 4.7423-4.1995 4.7423zm0-13.65038c-5.2009 0-8.9753 3.74738-8.9753 8.90808s3.7744 8.9075 8.9753 8.9075c5.2203 0 9.0104-3.7468 9.0104-8.9075s-3.7901-8.90808-9.0104-8.90808z"/><path d="m68.872 16.7634c-.2021-.3804-.4339-.7025-.6808-.9582l-.1573-.1668.1655-.1587c.2388-.2516.4828-.55.7181-.8958l4.5896-6.82286h-5.5716l-3.4484 5.33696c-.1952.2862-.5893.4307-1.1793.4307h-.7859v-10.09016c0-2.01817-1.2573-2.29282-2.6155-2.29282h-2.3253l.0038 23.81718h4.937v-7.1443h.4625c.5627 0 .946.0651 1.1218.371l2.7233 5.1403c.7608 1.395 1.519 1.633 2.9452 1.633h3.7834l-2.8178-4.6609z"/><path d="m92.8391 7.37202c-2.5112 0-4.1135 1.11554-5.0114 2.05885l-.2997.30314-.1058-.41231c-.2638-1.01045-1.1529-1.56653-2.4908-1.56653h-2.2126l.0138 17.20183h4.9033v-7.9282c0-.7751.1008-1.4478.3058-2.0615.5458-1.8575 2.0683-3.0124 3.9712-3.0124 1.5306 0 2.1286.8077 2.1286 2.895v7.4922c0 1.7815.824 2.6149 2.6068 2.6149h2.3335l-.0079-10.9405c0-4.34692-2.1215-6.64448-6.1348-6.64448z"/><path d="m77.3134 7.76302h-2.3241l.0159 13.30048-.0016 3.898h2.4807c.0312 0 .0563.0033.0875.0033l1.1555-.0033h1.1501v-.0068h.008l.01-14.5801c0-1.75914-.8427-2.61158-2.582-2.61158z"/><path d="m46.8132 21.0604c-2.4581 0-4.1698-1.9524-4.1698-4.7423 0-2.7892 1.7117-4.7402 4.1698-4.7402 2.4673 0 4.1992 1.951 4.1992 4.7402 0 2.834-1.6906 4.7423-4.1992 4.7423zm0-13.65038c-5.206 0-8.9812 3.74738-8.9812 8.90808s3.7752 8.9075 8.9812 8.9075c5.215 0 9.0113-3.7468 9.0113-8.9075s-3.7963-8.90808-9.0113-8.90808z"/></g></g><g mask="url(#d)"><g mask="url(#e)"><g fill="#000" mask="url(#f)"><path d="m151.917 21.0595c-2.457 0-4.17-1.9524-4.17-4.7423 0-2.7892 1.713-4.7403 4.17-4.7403 2.467 0 4.2 1.9511 4.2 4.7403 0 2.8339-1.691 4.7423-4.2 4.7423zm0-13.65045c-5.205 0-8.98 3.74745-8.98 8.90815s3.775 8.9074 8.98 8.9074c5.215 0 9.011-3.7467 9.011-8.9074s-3.796-8.90815-9.011-8.90815z"/><path d="m109.312 20.3025c-2.68 0-3.634-2.3389-3.634-4.5307 0-.9656.244-4.1129 3.377-4.1129 1.557 0 3.632.4462 3.632 4.275 0 3.6111-1.836 4.3686-3.375 4.3686zm5.921-12.58703c-.931 0-1.647.37094-2.006 1.04842l-.135.2631-.227-.19733c-.792-.68493-2.211-1.49734-4.515-1.49734-4.585 0-7.672 3.44358-7.672 8.56838 0 5.1186 3.194 8.6958 7.764 8.6958 1.561 0 2.794-.3641 3.772-1.1046l.379-.2842v.4781c0 2.2976-1.486 3.565-4.18 3.565-1.309 0-2.5-.3187-3.297-.6076-1.04-.314-1.65-.0543-2.072.9894l-.389.963-.55 1.4065.341.1817c1.723.9148 3.967 1.4607 5.996 1.4607 4.176 0 9.052-2.1375 9.052-8.1526l.017-15.77643z"/></g></g></g><g mask="url(#g)"><g fill="#000" mask="url(#h)"><path d="m9.29179 20.8623-3.99147-.0039v-4.7721c0-1.02.39539-1.5503 1.26942-1.6724h2.72205c1.94291 0 3.19821 1.2255 3.19961 3.2077-.0014 2.0344-1.2255 3.2394-3.19961 3.2407zm-3.99147-12.87322v-1.25593c0-1.09927.46514-1.62211 1.48587-1.68926h2.04238c1.75163 0 2.80083 1.04842 2.80083 2.8021 0 1.33731-.7182 2.89771-2.7364 2.89771h-3.59268zm9.08918 4.76262-.7216-.4055.6299-.5385c.7325-.63 1.9606-2.04593 1.9606-4.49268 0-3.74339-2.9037-6.15962-7.39792-6.15962h-5.12877l-.58394-.00136c-1.33241.04884-2.398487 1.1325-2.413395 2.47321v21.24835h2.353705c.00596.0014.00796 0 .00995.0014l5.86376-.0014c4.99591 0 8.22051-2.7194 8.22051-6.9313 0-2.2677-1.0412-4.2066-2.7928-5.1926z"/><path d="m182.831 7.42743c-2.035 0-4.002.95278-5.264 2.55049l-.356.45028-.278-.50385c-.908-1.65603-2.472-2.49692-4.645-2.49692-2.279 0-3.808 1.27151-4.518 2.02764l-.464.50319-.179-.66187c-.26-.95279-1.108-1.47768-2.393-1.47768h-2.061l-.02 17.13539h4.683v-7.564c0-.6626.082-1.3184.248-2.004.448-1.8276 1.676-3.7935 3.741-3.5968 1.273.122 1.895 1.106 1.895 3.0069v10.1579h4.716v-7.564c0-.828.077-1.4479.264-2.0697.38-1.7449 1.662-3.5339 3.654-3.5339 1.442 0 1.975.8165 1.975 3.0097v7.6528c0 1.7313.772 2.5051 2.502 2.5051h2.205l.003-10.9392c0-4.36993-1.922-6.58747-5.708-6.58747z"/><path d="m140.226 19.0044c-.014.0169-2.029 2.1416-4.682 2.1416-2.417 0-4.859-1.4831-4.859-4.7938 0-2.8584 1.893-4.8562 4.603-4.8562.881 0 1.881.3154 2.038.8457l.023.0895c.361 1.2023 1.454 1.2668 1.668 1.2668l2.566.0027v-2.2426c0-2.95804-3.763-4.03087-6.295-4.03087-5.414 0-9.343 3.76977-9.343 8.96097 0 5.1892 3.886 8.9536 9.244 8.9536 4.649 0 7.177-3.0557 7.201-3.0862l.135-.1655-2.032-3.3704z"/></g></g></g></svg>