<svg width="200" height="40" viewBox="0 0 200 40" fill="none" xmlns="http://www.w3.org/2000/svg">
<g clip-path="url(#clip0_2_1082)">
<path d="M50.4143 3.04688C49.2592 3.04688 48.3291 3.97639 48.3291 5.13149V30.5805C48.3291 31.7356 49.2592 32.6651 50.4143 32.6651H66.4159C66.7181 32.6651 66.9614 32.422 66.9614 32.1197V29.2005C66.9614 28.8983 66.7181 28.655 66.4159 28.655H52.8091V19.3481H65.0442C65.3464 19.3481 65.5896 19.1048 65.5896 18.8026V16.044C65.5896 15.7418 65.3464 15.4986 65.0442 15.4986H52.8091V6.96298H66.4159C66.7181 6.96298 66.9614 6.71979 66.9614 6.41759V3.59227C66.9614 3.29006 66.7181 3.04688 66.4159 3.04688H50.4143Z" fill="black"/>
<path d="M104.434 10.4639C100.627 10.4639 98.2628 11.7751 96.6799 13.9553V11.6776C96.6799 11.3753 96.4365 11.132 96.1343 11.132H92.8395C92.5373 11.132 92.2939 11.3753 92.2939 11.6776V39.4606C92.2939 39.7628 92.5373 40.0061 92.8395 40.0061H96.1913C96.4935 40.0061 96.7368 39.7628 96.7368 39.4606V29.956C98.2054 32.0704 100.585 33.3222 104.434 33.3222C110.908 33.3221 114.939 28.1984 114.939 21.8863C114.939 15.5742 110.991 10.4639 104.434 10.4639ZM103.494 14.1393C108.152 14.1393 110.443 17.6078 110.443 21.8863C110.443 26.1648 108.152 29.6333 103.494 29.6333C98.837 29.6333 96.5457 26.1648 96.5457 21.8863C96.5457 17.6078 98.837 14.1393 103.494 14.1393Z" fill="black"/>
<path d="M169.45 11.1328H172.764C173.066 11.1328 173.309 11.3761 173.309 11.6783V32.1229C173.309 32.4251 173.066 32.6684 172.764 32.6684H169.45C169.148 32.6684 168.904 32.4251 168.904 32.1229V11.6783C168.904 11.3761 169.148 11.1328 169.45 11.1328Z" fill="black"/>
<path d="M169.402 3.03711H172.811C173.113 3.03711 173.356 3.2804 173.356 3.5826V6.99172C173.356 7.29393 173.113 7.53722 172.811 7.53722H169.402C169.1 7.53722 168.856 7.29393 168.856 6.99172V3.5826C168.856 3.2804 169.1 3.03711 169.402 3.03711Z" fill="black"/>
<path d="M152.017 33.3198C155.824 33.3198 158.189 32.0085 159.772 29.8284V32.1196C159.772 32.4218 160.015 32.6652 160.317 32.6652H163.612C163.914 32.6652 164.158 32.4218 164.158 32.1196V3.59242C164.158 3.29021 163.914 3.04688 163.612 3.04688H160.26C159.958 3.04688 159.715 3.29021 159.715 3.59242V13.9487C158.139 11.888 155.866 10.4614 152.017 10.4615C145.544 10.4615 141.513 15.5852 141.513 21.8973C141.513 28.2095 145.46 33.3198 152.017 33.3198ZM152.957 29.6443C148.3 29.6443 146.009 26.1759 146.009 21.8974C146.009 17.6188 148.3 14.1504 152.957 14.1504C157.615 14.1504 159.906 17.6188 159.906 21.8974C159.906 26.1759 157.615 29.6443 152.957 29.6443Z" fill="black"/>
<path d="M187.599 10.4785C181.042 10.4785 177.095 15.5888 177.095 21.9009C177.095 28.213 181.042 33.3233 187.599 33.3233C191.407 33.3233 193.771 32.0121 195.354 29.8319V32.1232C195.354 32.4254 195.597 32.6687 195.899 32.6687H199.194C199.496 32.6687 199.74 32.4254 199.74 32.1232V21.9009V11.6787C199.74 11.3765 199.496 11.1331 199.194 11.1331H195.899C195.597 11.1331 195.354 11.3765 195.354 11.6787V13.9699C193.771 11.7898 191.407 10.4785 187.599 10.4785ZM188.539 14.154C193.196 14.154 195.488 17.6224 195.488 21.9009C195.488 26.1794 193.196 29.6479 188.539 29.6479C183.882 29.6479 181.591 26.1794 181.591 21.9009C181.591 17.6224 183.882 14.154 188.539 14.154Z" fill="black"/>
<path d="M70.4905 11.1328C70.0196 11.1328 69.9353 11.5047 70.149 11.7992L77.1623 21.4031L69.4647 32.0018C69.2509 32.2963 69.3353 32.6684 69.8062 32.6684H73.6037C73.9331 32.6684 74.1042 32.5559 74.2136 32.3944L79.4588 24.6539L84.9219 32.3944C85.0344 32.5538 85.2024 32.6684 85.5318 32.6684H89.4745C89.9454 32.6684 90.0307 32.2957 89.816 32.0018L82.0742 21.4031L89.0435 11.7992C89.2572 11.5047 89.1729 11.1328 88.702 11.1328H84.9789C84.6495 11.1328 84.4788 11.2453 84.369 11.4067L79.7665 18.171L75.0117 11.4067C74.8998 11.2468 74.7312 11.1328 74.4018 11.1328H70.4905Z" fill="black"/>
<path d="M128.236 10.4639C121.642 10.4639 117.674 15.2048 117.674 21.893C117.674 29.2696 122.365 33.3222 128.236 33.3222C135.331 33.3222 138.128 29.1494 138.284 28.9931C138.464 28.8133 138.415 28.4785 138.264 28.3304L136.213 26.3198C136.062 26.1717 135.775 26.149 135.576 26.3495C135.426 26.5006 132.929 29.6563 128.839 29.6563C124.492 29.6563 122.352 26.9929 122.064 23.0692H138.264C138.766 23.0692 138.794 22.6226 138.795 22.3293C138.829 14.3634 134.199 10.4639 128.236 10.4639ZM128.25 13.9303C132.238 13.9303 133.908 16.3282 134.261 19.7439H122.221C122.695 16.3954 124.453 13.9303 128.25 13.9303Z" fill="black"/>
<path fill-rule="evenodd" clip-rule="evenodd" d="M29.2735 0.00878906H8.34471C4.23786 0.00878906 0.931641 3.31502 0.931641 7.42185V28.3505C0.931641 32.4574 4.23786 35.7636 8.34471 35.7636H29.2735C33.3803 35.7636 36.6866 32.4574 36.6866 28.3505V7.42185C36.6866 3.31502 33.3803 0.00878906 29.2735 0.00878906ZM10.9302 6.41016C10.597 6.41017 10.3876 6.48673 10.2111 6.66316L6.63831 10.236C6.57196 10.3023 6.53469 10.3924 6.53467 10.4862C6.53465 10.6815 6.69304 10.8399 6.88837 10.8399H22.3768L12.8549 20.3617C12.6673 20.5493 12.5581 20.6585 12.5581 21.0267L12.5581 23.532C12.5581 23.6837 12.6271 23.8152 12.7261 23.9142C12.8252 24.0132 12.9565 24.0821 13.1082 24.0821H15.6136C15.9819 24.0821 16.0909 23.9731 16.2785 23.7854L16.2785 23.7854L25.8004 14.2635V29.752C25.8004 29.9473 25.9588 30.1057 26.1541 30.1057C26.248 30.1057 26.338 30.0684 26.4044 30.002L29.9772 26.4292C30.1536 26.2528 30.2302 26.0434 30.2302 25.7102L30.2302 8.79769C30.2302 8.48415 30.1684 8.17368 30.0484 7.884C29.9284 7.59433 29.7525 7.33113 29.5308 7.10942C29.3091 6.88772 29.0459 6.71186 28.7562 6.59188C28.4665 6.4719 28.1561 6.41015 27.8425 6.41016L10.9302 6.41016ZM7.8957 24.7793H11.3324C11.6199 24.7793 11.8513 25.0107 11.8513 25.2982V28.7564C11.8513 29.0439 11.6199 29.2753 11.3324 29.2753H7.8957C7.60822 29.2753 7.37678 29.0439 7.37678 28.7564V25.2982C7.37678 25.0107 7.60822 24.7793 7.8957 24.7793Z" fill="black"/>
</g>
<defs>
<clipPath id="clip0_2_1082">
<rect width="198.81" height="40" fill="white" transform="translate(0.927734)"/>
</clipPath>
</defs>
</svg>
