<svg fill="none" height="48" viewBox="0 0 227 48" width="227" xmlns="http://www.w3.org/2000/svg" xmlns:xlink="http://www.w3.org/1999/xlink"><clipPath id="a"><path d="m.9375 0h225.646v48h-225.646z"/></clipPath><g clip-path="url(#a)"><path d="m225.313 32.0753c-.7 0-1.269.5685-1.269 1.2684s.569 1.2684 1.269 1.2684 1.268-.5685 1.268-1.2684-.568-1.2684-1.268-1.2684zm0 2.3356c-.59 0-1.068-.48-1.068-1.0672 0-.59.48-1.0673 1.068-1.0673.59 0 1.07.48 1.07 1.0673 0 .5872-.48 1.0672-1.07 1.0672zm.413-1.2844c0-.2307-.164-.3674-.405-.3674h-.405v1.1557h.198v-.4183h.217l.209.4183h.215l-.231-.4611c.124-.0564.202-.1691.202-.3272zm-.413.1903h-.196v-.3834h.196c.134 0 .214.0671.214.1904 0 .126-.083.193-.214.193zm-152.8308-14.0782v-3.0677h-4.7034v18.2507h4.7034v-10.9434c0-1.9817 1.2711-2.9551 3.2528-2.9551h2.5743v-4.3521h-2.199c-1.7215-.0001-3.2178.8982-3.6281 3.0676zm10.2329-10.28645c-1.609 0-2.8425 1.27105-2.8425 2.88005 0 1.5714 1.2335 2.8424 2.8425 2.8424 1.6089 0 2.8425-1.271 2.8425-2.8424-.0001-1.609-1.2336-2.88005-2.8425-2.88005zm-2.3464 25.46955h4.6928v-18.2508h-4.6928zm27.0463-9.1254c0 5.2102-4.223 9.4338-9.4338 9.4338-2.1024 0-4.009-.6892-5.5375-1.853v6.9024h-4.6927v-23.6086h4.6927v1.5445c1.5285-1.1637 3.4351-1.8529 5.5375-1.8529 5.2108 0 9.4338 4.2235 9.4338 9.4338zm-4.722 0c0-2.8291-2.296-5.1245-5.1247-5.1245-2.8291 0-5.1245 2.2954-5.1245 5.1245 0 2.829 2.2954 5.1244 5.1245 5.1244 2.8287 0 5.1247-2.2927 5.1247-5.1244zm86.284-1.6009-2.737-.7509c-1.802-.4693-2.502-1.0217-2.502-1.9736 0-.9278.986-1.5768 2.397-1.5768 1.344 0 2.397.8796 2.397 2.0058v.1046h4.326v-.1046c0-3.3118-2.701-5.5375-6.723-5.5375-3.982 0-6.875 2.2231-6.875 5.2881 0 2.3839 1.579 4.1805 4.336 4.926l2.622.716c1.993.5524 2.733 1.1639 2.733 2.2606 0 1.1558-1.07 1.9334-2.663 1.9334-1.66 0-2.778-1.0512-2.778-2.6118v-.1046h-4.591v.1046c0 3.7434 3.014 6.3606 7.331 6.3606 4.159 0 7.179-2.5555 7.179-6.0737 0-1.7269-.772-3.9847-4.452-4.9662zm-64.915-7.5245h4.693v18.2507h-4.693v-1.5446c-1.528 1.1638-3.435 1.853-5.537 1.853-5.211 0-9.434-4.2235-9.434-9.4338s4.223-9.4338 9.434-9.4338c2.102 0 4.009.6892 5.537 1.853zm0 9.1254c0-2.8318-2.295-5.1245-5.124-5.1245s-5.125 2.2954-5.125 5.1245c0 2.829 2.296 5.1244 5.125 5.1244 2.831 0 5.124-2.2927 5.124-5.1244zm21.638-15.62014h4.693v24.74814h-4.693v-1.5446c-1.529 1.1638-3.435 1.853-5.538 1.853-5.21 0-9.434-4.2235-9.434-9.4338 0-5.2104 4.224-9.4338 9.434-9.4338 2.103 0 4.009.6892 5.538 1.853zm0 15.62014c0-2.8291-2.296-5.1245-5.125-5.1245s-5.124 2.2954-5.124 5.1245c0 2.829 2.292 5.1244 5.124 5.1244 2.829 0 5.125-2.2927 5.125-5.1244zm26.48 9.1254h4.693v-18.2508h-4.693zm2.347-25.46955c-1.609 0-2.843 1.27105-2.843 2.88005 0 1.5714 1.234 2.8424 2.843 2.8424 1.608 0 2.842-1.271 2.842-2.8424 0-1.609-1.234-2.88005-2.842-2.88005zm39.185 16.34415c0 5.2102-4.223 9.4338-9.434 9.4338-5.21 0-9.433-4.2235-9.433-9.4338 0-5.2104 4.223-9.4338 9.433-9.4338 5.211 0 9.434 4.2235 9.434 9.4338zm-4.309 0c0-2.8291-2.295-5.1245-5.125-5.1245-2.829 0-5.124 2.2954-5.124 5.1245 0 2.829 2.293 5.1244 5.124 5.1244 2.829 0 5.125-2.2927 5.125-5.1244zm-139.3235-15.62014h-18.0014v4.18594h6.6638v20.5595h4.6766v-20.5595h6.6637v-4.18594zm91.0365 19.74704-4.175-13.2522h-4.929l6.262 18.2507h5.647l6.299-18.2507h-4.929zm59.472-10.1846v-3.0677h-4.704v18.2507h4.704v-10.9434c0-1.9817 1.271-2.9551 3.252-2.9551h2.575v-4.3521h-2.199c-1.722-.0001-3.215.8982-3.628 3.0676z" fill="#000"/><path d="m24.9365 48c13.2549 0 24-10.7452 24-24s-10.7451-24-24-24c-13.2548 0-23.999977 10.7452-23.999977 24s10.745177 24 23.999977 24z" fill="#000"/><path d="m39.7608 19.3176 2.8961-3.1509h-6.4224c-3.2151-2.1962-7.0981-3.4753-11.2974-3.4753-4.194 0-8.0662 1.2819-11.276 3.4753h-6.43844l2.89614 3.1509c-1.77522 1.6196-2.88807 3.9526-2.88807 6.543 0 4.8885 3.96337 8.8519 8.85187 8.8519 2.3223 0 4.438-.8957 6.0174-2.3598l2.8371 3.0892 2.8371-3.0865c1.5795 1.4641 3.6925 2.3571 6.0148 2.3571 4.8885 0 8.8572-3.9634 8.8572-8.8519.0026-2.5931-1.1102-4.926-2.8854-6.543zm-23.6756 12.5336c-3.309 0-5.9905-2.6815-5.9905-5.9906s2.6815-5.9906 5.9905-5.9906c3.3091 0 5.9906 2.6815 5.9906 5.9906s-2.6815 5.9906-5.9906 5.9906zm8.8546-6.1649c0-3.9419-2.8666-7.326-6.6503-8.7714 2.046-.8555 4.2905-1.3301 6.6476-1.3301s4.6042.4746 6.6503 1.3301c-3.781 1.4481-6.6476 4.8296-6.6476 8.7714zm8.8519 6.1649c-3.3091 0-5.9907-2.6815-5.9907-5.9906s2.6816-5.9906 5.9907-5.9906 5.9905 2.6815 5.9905 5.9906-2.6815 5.9906-5.9905 5.9906zm0-9.1334c-1.735 0-3.1402 1.4051-3.1402 3.1401s1.4052 3.1401 3.1402 3.1401c1.7349 0 3.1401-1.4051 3.1401-3.1401-.0001-1.7323-1.4052-3.1401-3.1401-3.1401zm-14.5664 3.1428c0 1.735-1.4051 3.1401-3.1401 3.1401-1.7349 0-3.14-1.4051-3.14-3.1401s1.4051-3.1401 3.14-3.1401c1.735-.0027 3.1401 1.4051 3.1401 3.1401z" fill="#fff"/></g></svg>