<svg fill="none" height="48" viewBox="0 0 119 48" width="119" xmlns="http://www.w3.org/2000/svg"><g fill="#000"><path d="m29.8204 14.3529c-.1595 1.2758.3189 2.5515 1.1163 3.6678.6379.7973 1.7541 1.2757 2.711 1.2757.6378 0 1.2757-.1594 1.9136-.4784.6378-.3189 1.1163-.9568 1.4352-1.5946.3189-.7974.6379-1.7542.4784-2.5515.1595-1.4353-.3189-2.711-1.1163-3.8273-.6379-.95679-1.7541-1.43519-2.8704-1.43519s-2.0731.4784-2.711 1.27579c-.6379.9568-1.1163 2.392-.9568 3.6677zm11.6412-4.94349v11.64119c0 1.1163-.1595 2.392-.4784 3.5083-.3189.9568-.7973 1.7542-1.4352 2.392-.6379.6379-1.5947 1.1163-2.392 1.4352-1.1163.1595-2.3921.319-3.6678.319-1.2758 0-2.5515-.1595-3.6678-.6379-.9568-.3189-1.7541-.7973-2.5515-1.4352-.4784-.4784-.7973-1.1163-.9568-1.9136 0-.4784.1595-.9568.4784-1.1163.3189-.3189.7974-.4784 1.2758-.4784.6378 0 1.1162.3189 1.5946.7973l.6379.7974c.1595.3189.4784.4784.7974.7973.3189.1595.6378.319.9568.4784.4784.1595.9568.1595 1.2757.1595.7974 0 1.5947-.1595 2.392-.4784.4784-.319.9569-.6379 1.2758-1.2758.1595-.4784.3189-1.1162.4784-1.5946 0-.6379 0-1.5947.1595-2.8705-.6379.7974-1.2758 1.4352-2.2326 1.9136s-1.9136.6379-2.8704.6379c-1.2758 0-2.3921-.3189-3.5083-1.1163-.9568-.7973-1.7542-1.7541-2.2326-2.8704-.6379-1.2757-.7973-2.8704-.7973-4.3056 0-1.1163.1594-2.2326.4784-3.1894.3189-.9568.7973-1.75416 1.4352-2.39204.6379-.63787 1.2757-1.11628 2.0731-1.43521.6378-.63788 1.4352-.79734 2.392-.79734s2.0731.15946 3.0299.63787c.9568.4784 1.7542 1.27575 2.392 2.07309v-.47841c0-.63787.1595-1.11628.4784-1.59468.1595-.47841.6379-.63787 1.2758-.63787.6379-.15947 1.2757.15946 1.5947.79734.1594.63787.3189 1.27574.3189 2.23256z"/><path d="m62.9912 14.5113c.1594-1.4352-.319-2.711-1.1163-3.8273-.6379-.95677-1.7542-1.43518-2.8705-1.43518-.7973 0-1.4352.15947-2.073.63788-.6379.4784-1.1163 1.1163-1.4353 1.7541-.6378 1.7542-.6378 3.6678 0 5.5814.319.7974.7974 1.4353 1.4353 1.7542.6378.4784 1.2757.6379 2.073.6379 1.1163 0 2.2326-.4784 2.8705-1.4352.7973-.9569 1.2757-2.2326 1.1163-3.6678zm3.9867 0c0 1.1163-.1595 2.2325-.6379 3.3488-.3189.9568-.9568 1.9136-1.5947 2.5515-.6379.7974-1.5947 1.2758-2.5515 1.5947-1.1163.4784-2.2325.6379-3.3488.6379s-2.2326-.1595-3.3489-.6379c-1.9136-.7973-3.5083-2.392-4.1461-4.3057-.7974-2.073-.7974-4.4651 0-6.6976.3189-.9568.9568-1.91365 1.5946-2.55152.6379-.79734 1.5947-1.27575 2.5515-1.59468 2.0731-.79735 4.4652-.79735 6.5382 0 .9569.31893 1.7542.95681 2.5515 1.75415.6379.79734 1.2758 1.59465 1.5947 2.55145.6379 1.1163.7974 2.2326.7974 3.3489z"/><path d="m80.6921 14.513c0 .9568.1594 1.9136.4784 2.711.3189.6378.7973 1.2757 1.4352 1.7541.6379.319 1.2757.6379 1.9136.6379s1.2758-.1595 1.9136-.4784c.6379-.4784 1.1163-.9568 1.4353-1.7542.3189-.9568.4784-1.9136.4784-2.8704s-.1595-1.9136-.4784-2.711c-.319-.6378-.7974-1.2757-1.4353-1.7541-.6378-.47842-1.2757-.63789-1.9136-.63789s-1.4352.15947-1.9136.63789c-.7973.4784-1.2757 1.1163-1.5947 1.7541-.3189.9569-.4784 1.7542-.3189 2.711zm7.9734 5.9003v-.3189c-.4784.4784-.9568 1.1163-1.5947 1.4352-.4784.319-1.1163.6379-1.7541.9568-.6379.1595-1.2758.319-2.0731.319-.9568 0-1.9136-.1595-2.711-.6379-.7973-.4784-1.5947-.9568-2.0731-1.7542-.6379-.7973-1.1163-1.7541-1.4352-2.7109-.3189-1.1163-.4784-2.2326-.4784-3.3489 0-2.5515.6379-4.46508 1.9136-5.9003 1.2758-1.27574 3.0299-2.07309 4.7841-2.07309.9568 0 1.9136.15947 2.8704.63788.9568.4784 1.5947 1.11628 2.392 1.75415v-5.90033c0-.63788.1595-1.27575.4784-1.913624.319-.478405.7974-.637874 1.4353-.637874.4784 0 1.1162.159469 1.4352.637874.3189.478404.4784 1.116284.4784 1.754154v17.70096c0 .6379-.1595 1.2758-.4784 1.7542-.319.3189-.7974.6379-1.4352.6379-.4785 0-.9569-.1595-1.4353-.6379-.3189-.4784-.4784-1.1163-.3189-1.7542z"/><path d="m113.064 14.6713c-.798.3189-1.755.4784-2.552.6378-1.116.1595-1.914.4784-2.392.4784-.478.1595-.957.319-1.276.6379-.319.319-.638.7974-.638 1.4352 0 .6379.319 1.1163.798 1.5947.478.4784 1.116.6379 1.754.6379.797 0 1.435-.1595 2.232-.4784.638-.319 1.117-.7974 1.436-1.2758.478-.9568.638-1.9136.478-3.0299zm.159 5.7408c-.797.6379-1.754 1.2758-2.87 1.7542-.957.3189-2.073.6379-3.03.6379s-1.914-.1595-2.711-.6379c-.798-.319-1.435-.9568-1.754-1.5947-.479-.6379-.638-1.4352-.638-2.2326 0-.9568.319-2.0731 1.116-2.8704s1.754-1.4352 2.87-1.5947l1.914-.3189c.957-.1595 1.914-.319 2.552-.6379.797-.1595 1.435-.3189 2.392-.6379 0-.7973-.16-1.5946-.638-2.39199-.319-.4784-1.117-.79734-2.392-.79734-.798 0-1.595.15947-2.233.4784-.478.31894-.957.79733-1.276 1.27573-.159.319-.478.7974-.797 1.1163-.319.1595-.638.3189-.957.3189-.478 0-.797-.1594-1.116-.4784-.319-.3189-.478-.6378-.478-1.1162 0-.79739.318-1.43526.797-2.07314.638-.79734 1.435-1.27574 2.392-1.59468.957-.47841 2.232-.63787 3.668-.63787 1.435 0 2.87.15946 4.146.63787.957.31894 1.754 1.11628 2.232 1.91362.479 1.1163.638 2.392.638 3.6678v4.6246c0 .7973.16 1.5946.319 2.392.16.4784.319 1.1163.319 1.5947s-.159.7973-.638 1.1162c-.319.319-.797.4785-1.275.4785-.479 0-.957-.1595-1.276-.6379-.479-.4784-.798-1.1163-1.276-1.7542z"/><path d="m11.3224 14.6713c-.7974.3189-1.75418.4784-2.55153.6378-1.11628.319-1.91362.4784-2.39202.4784-.47841.1595-.95681.319-1.27575.6379-.31894.319-.63787.7974-.63787 1.4352 0 .6379.31893 1.1163.79734 1.5947.4784.4784 1.11628.6379 1.75415.6379.79734 0 1.43522-.1595 2.23256-.4784.63787-.319 1.11632-.7974 1.43522-1.2758.4784-.9568.6379-1.9136.4784-3.0299zm.1594 5.7408c-.7973.6379-1.75412 1.2758-2.87039 1.7542-.95682.3189-2.07309.6379-3.0299.6379-.95682 0-1.91363-.1595-2.71097-.6379-.79734-.319-1.43521-.9568-1.75415-1.5947-.478406-.6379-.637874-1.4352-.637874-2.2326 0-.9568.318936-2.0731 1.116274-2.8704.79735-.7973 1.75416-1.4352 2.87044-1.5947l1.91362-.3189c.95681-.1595 1.91362-.319 2.55149-.6379.63788-.1595 1.43526-.4784 2.23256-.6379 0-.7973-.1595-1.5946-.6379-2.39199-.3189-.4784-1.11625-.63787-2.23253-.63787-.79734 0-1.59469.15947-2.23256.4784-.63787.15947-1.11628.63786-1.43522 1.11626-.31893.6379-.63787.9568-.79734 1.1163-.31893.3189-.63787.3189-.95681.3189-.4784 0-.79734-.1594-1.11628-.4784-.31893-.1594-.4784-.6378-.4784-1.1162 0-.79739.31893-1.43526.79734-2.07314.63787-.79734 1.43522-1.27574 2.39203-1.59468 1.11628-.47841 2.39202-.63787 3.82724-.63787 1.43521 0 2.87043.15946 4.14613.63787.9569.31894 1.7542.95681 2.2326 1.91362.4784 1.1163.6379 2.392.6379 3.6678v4.6246c0 .7973.1594 1.5946.3189 2.392.1595.4784.319 1.1163.319 1.5947s-.319.7973-.6379 1.1162c-.319.319-.7974.4785-1.2758.4785s-.9568-.1595-1.2757-.6379c-.319-.4784-.7974-1.1163-1.2758-1.7542z"/><path d="m8.133 32.2139c4.3056 0 7.6545 3.5083 7.6545 7.6545 0 4.3056-3.5083 7.6544-7.6545 7.6544-4.30565 0-7.654484-3.5083-7.654484-7.6544 0-4.3057 3.508304-7.6545 7.654484-7.6545z"/><path d="m33.6477 32.2139c4.3056 0 7.6544 3.5083 7.6544 7.6545 0 4.3056-3.5083 7.6544-7.6544 7.6544-4.3057 0-7.6545-3.5083-7.6545-7.6544 0-4.3057 3.3488-7.6545 7.6545-7.6545z"/><path d="m59.0041 32.2139c4.3056 0 7.6545 3.5083 7.6545 7.6545 0 4.3056-3.5083 7.6544-7.6545 7.6544-4.3057 0-7.6545-3.5083-7.6545-7.6544 0-4.3057 3.5083-7.6545 7.6545-7.6545z"/><path d="m84.5187 32.2139c4.3057 0 7.6545 3.5083 7.6545 7.6545 0 4.3056-3.5083 7.6544-7.6545 7.6544-4.3056 0-7.6544-3.5083-7.6544-7.6544 0-4.3057 3.3488-7.6545 7.6544-7.6545z"/><path d="m110.033 32.2139c4.305 0 7.654 3.5083 7.654 7.6545 0 4.3056-3.508 7.6544-7.654 7.6544-4.306 0-7.655-3.5083-7.655-7.6544-.159-4.3057 3.349-7.6545 7.655-7.6545z"/></g></svg>