<svg fill="none" height="48" viewBox="0 0 156 48" width="156" xmlns="http://www.w3.org/2000/svg" xmlns:xlink="http://www.w3.org/1999/xlink"><clipPath id="a"><path d="m.9375 0h155v48h-155z"/></clipPath><g clip-path="url(#a)"><path d="m82.6252 12.0601c0 1.7297-1.4043 3.1231-3.1475 3.1231s-3.1474-1.3934-3.1474-3.1231c0-1.7298 1.3558-3.12316 3.1474-3.12316 1.7917.04804 3.1475 1.44146 3.1475 3.12316zm-12.9772 6.2943v.7687s-1.5011-1.9219-4.697-1.9219c-5.278 0-9.3939 3.988-9.3939 9.5135 0 5.4775 4.0675 9.5135 9.3939 9.5135 3.2443 0 4.697-1.9699 4.697-1.9699v.8168c0 .3844.2905.6726.6779.6726h3.9222v-18.066s-3.5832 0-3.9222 0c-.3874 0-.6779.3363-.6779.6727zm0 11.5795c-.7263 1.0571-2.179 1.97-3.9222 1.97-3.099 0-5.4717-1.9219-5.4717-5.1892s2.3727-5.1892 5.4717-5.1892c1.6948 0 3.2443.961 3.9222 1.97zm7.5055-12.2522h4.6485v18.066h-4.6485zm69.4375-.4805c-3.196 0-4.697 1.9219-4.697 1.9219v-10.13811h-4.648v26.76271h3.922c.387 0 .678-.3363.678-.6726v-.8168s1.501 1.9699 4.697 1.9699c5.278 0 9.394-4.036 9.394-9.5135s-4.116-9.5135-9.346-9.5135zm-.775 14.6547c-1.791 0-3.195-.913-3.922-1.97v-6.4385c.727-.9609 2.276-1.9699 3.922-1.9699 3.099 0 5.472 1.9219 5.472 5.1892 0 3.2672-2.373 5.1892-5.472 5.1892zm-10.991-6.8229v10.7628h-4.649v-10.2342c0-2.979-.968-4.1802-3.583-4.1802-1.405 0-2.857.7207-3.777 1.7778v12.5885h-4.649v-18.066h3.68c.388 0 .678.3363.678.6727v.7687c1.356-1.3934 3.148-1.9219 4.939-1.9219 2.034 0 3.729.5766 5.085 1.7297 1.646 1.3454 2.276 3.0751 2.276 6.1021zm-27.94-7.8318c-3.196 0-4.697 1.9219-4.697 1.9219v-10.13811h-4.6487v26.76271h3.9217c.388 0 .678-.3363.678-.6726v-.8168s1.501 1.9699 4.697 1.9699c5.278 0 9.394-4.036 9.394-9.5135.049-5.4775-4.067-9.5135-9.345-9.5135zm-.775 14.6547c-1.792 0-3.196-.913-3.922-1.97v-6.4385c.726-.9609 2.276-1.9699 3.922-1.9699 3.099 0 5.472 1.9219 5.472 5.1892 0 3.2672-2.373 5.1892-5.472 5.1892zm-12.5898-14.6547c1.4043 0 2.1306.2402 2.1306.2402v4.2763s-3.8738-1.2973-6.2949 1.4415v12.6366h-4.6485v-18.1141h3.9222c.3873 0 .6779.3363.6779.6727v.7687c.8716-1.009 2.7601-1.9219 4.2127-1.9219zm-48.2771 16.9129c-.2421-.5766-.4842-1.2012-.7263-1.7297-.3874-.8649-.7748-1.6817-1.1137-2.4505l-.0485-.048c-3.3411-7.2072-6.9244-14.5105-10.7013-21.71773l-.1453-.28829c-.3873-.72072-.7747-1.48949-1.1621-2.25826-.4842-.86486-.9684-1.77778-1.7432-2.64264-1.5495-1.92192-3.7769-2.97898-6.1496-2.97898-2.4212 0-4.6002 1.05706-6.1981 2.88288-.7263.86487-1.259 1.77778-1.7432 2.64265-.3874.76876-.7748 1.53753-1.1622 2.25825l-.1452.28829c-3.7285 7.20723-7.36022 14.51053-10.70136 21.71773l-.04842.0961c-.33896.7688-.72634 1.5856-1.11372 2.4504-.24211.5286-.48422 1.1051-.72633 1.7298-.629495 1.7777-.823185 3.4594-.58107 5.1892.53264 3.6036 2.95376 6.6306 6.2949 7.9759 1.25899.5286 2.56639.7688 3.9222.7688.3874 0 .8716-.048 1.259-.0961 1.5979-.1922 3.2443-.7207 4.8422-1.6336 1.9854-1.1051 3.8738-2.6907 6.0044-4.997 2.1306 2.3063 4.0675 3.8919 6.0044 4.997 1.5979.9129 3.2443 1.4414 4.8422 1.6336.3874.0481.8716.0961 1.259.0961 1.3558 0 2.7117-.2402 3.9222-.7688 3.3896-1.3453 5.7623-4.4204 6.2949-7.9759.3874-1.6817.1937-3.3634-.4358-5.1412zm-21.8385 2.4985c-2.6148-3.2673-4.3096-6.3423-4.8906-8.9369-.2421-1.1051-.2906-2.0661-.1453-2.931.0969-.7687.3874-1.4414.7748-2.018.92-1.2973 2.4695-2.1141 4.2611-2.1141 1.7917 0 3.3896.7688 4.2612 2.1141.3874.5766.6779 1.2493.7748 2.018.1452.8649.0968 1.8739-.1453 2.931-.5811 2.5465-2.2759 5.6216-4.8907 8.9369zm19.3206 2.2583c-.339 2.4985-2.0338 4.6606-4.4065 5.6216-1.1621.4805-2.4211.6246-3.6801.4805-1.2105-.1442-2.4211-.5286-3.6801-1.2493-1.7432-.9609-3.4864-2.4504-5.5201-4.6606 3.1958-3.8919 5.1327-7.4475 5.8591-10.6187.3389-1.4894.3874-2.8348.2421-4.084-.1937-1.2012-.6295-2.3063-1.3074-3.2673-1.5011-2.1622-4.0191-3.4114-6.8276-3.4114s-5.3264 1.2973-6.8275 3.4114c-.6779.961-1.1137 2.0661-1.3074 3.2673-.1937 1.2492-.1453 2.6426.2421 4.084.7263 3.1712 2.7116 6.7748 5.8591 10.6667-1.9853 2.2102-3.777 3.6997-5.5202 4.6607-1.2589.7207-2.4695 1.1051-3.6801 1.2492-1.3074.1442-2.56634-.048-3.68006-.4805-2.37269-.9609-4.06748-3.1231-4.40643-5.6216-.14527-1.2012-.04843-2.4024.4358-3.7477.14526-.4805.38738-.961.62949-1.5376.33896-.7687.72633-1.5856 1.11371-2.4024l.04843-.0961c3.34114-7.1591 6.92436-14.4624 10.65296-21.57354l.1452-.28829c.3874-.72072.7748-1.48949 1.1622-2.21021.3873-.76877.8231-1.48949 1.3558-2.11411 1.0169-1.15315 2.3727-1.77778 3.8738-1.77778s2.8569.62463 3.8738 1.77778c.5326.62462.9684 1.34534 1.3558 2.11411.3874.72072.7748 1.48949 1.1621 2.21021l.1453.28829c3.6801 7.15914 7.2633 14.46244 10.6045 21.62164v.048c.3874.7688.7263 1.6337 1.1137 2.4024.2421.5766.4842 1.0571.6295 1.5376.3874 1.2492.5326 2.4504.339 3.6997z" fill="#000"/></g></svg>