<svg fill="none" height="40" viewBox="0 0 134 40" width="134" xmlns="http://www.w3.org/2000/svg" xmlns:xlink="http://www.w3.org/1999/xlink"><clipPath id="a"><path d="m.166016 0h133.333v40h-133.333z"/></clipPath><g clip-path="url(#a)" fill="#000"><path d="m41.999 9.00098h6.6667l5.1667 13.83332h.1666l4.6667-13.83332h6.3333l-8 20.33332h-6.6666z"/><path d="m17.5003 13.9993h-6.1666v6.8334c0 1.1666.1666 2.6666 1.1666 3.3333s2.5.5 3.6667.3333c.6667 0 1-.1666 1.3333-.5v5.1667c-.8333.1667-1.5.3333-2.3333.5-4.3333.5-10.66667-.3333-10.66667-6v-9.6667h-4.333338v-4.99995h4.333338v-6h6.83337v6h6.1666zm17.5-4.99995h6.1667v20.33335h-6.1667zm-.3333-5.5c0-1.83333 1.5-3.333334 3.3333-3.333334 1.8334 0 3.3334 1.500004 3.3334 3.333334s-1.5 3.33333-3.3334 3.33333c-1.6666 0-3.3333-1.5-3.3333-3.33333z"/><path d="m112.001 19.1678c0 2.6666 1.666 5.1666 4.5 5.1666 3 0 4.5-2.3333 4.5-5.1666 0-2.6667-1.667-5.1667-4.5-5.1667-3 0-4.5 2.3333-4.5 5.1667zm-5.667 0c0-4.3334 2.333-8.5 6.5-10.00003 4.167-1.5 9.167-.33333 11.833 3.16663 2.5 3.3334 2.834 8.3334.834 12.1667-2 4-6.667 5.8333-11 5-5.167-.8333-8.167-5.3333-8.167-10.3333z"/><path d="m129.667 14.6657c-1.5 0-2.666-1.1667-2.666-2.6667s1.166-2.66664 2.666-2.66664 2.667 1.16664 2.667 2.66664c.167 1.3334-1.167 2.6667-2.667 2.6667zm0-6.16668c-1.833 0-3.333 1.5-3.333 3.33338 0 1.8333 1.5 3.3333 3.333 3.3333 1.834 0 3.334-1.5 3.334-3.3333 0-1.83338-1.334-3.33338-3.334-3.33338zm.5 2.83338c0-.3334-.333-.3334-.666-.3334h-.334v.6667h.167c.5 0 .833 0 .833-.3333zm1.334 2.1666h-1l-.834-1.1666h-.333v1.1666h-.833v-3.1666h1.833c.667.1666 1 .8333.5 1.5-.167.1666-.333.3333-.5.3333z"/><path d="m99.666 8.83343v2.83337h-.1667c-.1666-.1667-.3333-.3334-.6666-.8334-4-3.49997-11-2.8333-13.5 2.1667-1.3334 2.5-1.5 5.6667-1.1667 8.5.3334 2.5 1.3334 5.3333 3.5 6.8333 2.5 1.6667 5.8334 2 8.6667.8334 1.3333-.5 2.1667-1.5 2.5-2v2c0 1.5-.3333 2.6666-1.1667 3.5-1.8333 1.8333-5.1666 1.6666-7.5 1.1666-1.1666-.3333-2.5-.8333-3.6666-1.6666l-2.8334 4.5c1.6667 1.1666 3.1667 1.8333 4.8334 2.3333 4.5 1.1667 10.6666 1.1667 13.9996-2.3333 2-2 2.667-4.8334 2.667-8.8334v-18.99997zm-1.5 13.99997c-1.6667 2-5 2-6.6666 0-1.6667-2-1.6667-5.5 0-7.5 1.6666-2 4.9999-2 6.6666 0s1.6667 5.5 0 7.5c.8333-1-.8333 1 0 0z"/><path d="m19.1667 8.99918h6.3333v3.33332c.6667-1.3333 1.5-2.1667 2.3333-2.83332 2-1.33333 5.1667-.83333 5.5-.66666v5.66668c-1.3333-.3334-4-.8334-5.8333.3333-1.1667.6667-2.1667 1.6667-2.1667 6.1667v8.5h-6.3333v-20.50002z"/><path d="m70.8333 21.167c-1.1666.8334-2.1666 2.3334-1 3.5 1.1667 1.1667 3.1667 1 4.5.5 1.5-.5 2.6667-1.6666 2.6667-3.5v-1.3333c.1667.1667-4.5-.1667-6.1667.8333zm6.3334 5.6667c-.8334 1-1.6667 1.8333-2.8334 2.3333-4.5 1.8334-10.8333 0-10.8333-5.5 0-5.8333 6.3333-7 10.8333-7.1666h2.8334c0-1.1667-.3334-2-1.1667-2.6667-1.5-1.3333-3.8333-1.1667-5.6667-.3333-.8333.5-1.6666 1-2.3333 1.8333l-3.3333-3.5c1.1666-1 2.5-1.8333 4.1666-2.5 2.6667-1 6-1.16667 8.6667-.33334 2.6667.66667 4.3333 2.83334 5 5.50004.3333 1.3333.3333 2.8333.3333 4.5v10.3333h-5.6666z"/></g></svg>