<svg width="113" height="36" viewBox="0 0 113 36" fill="none" xmlns="http://www.w3.org/2000/svg">
<g clip-path="url(#clip0_2_1061)">
<path d="M99.4281 11.6367V11.6907C106.385 12.2757 108.428 17.2167 108.329 20.0877C108.167 28.4037 101.723 35.0997 91.3281 35.9187V35.9637C102.749 35.2797 109.436 29.3757 109.58 20.9157C109.562 17.8017 107.294 12.0957 99.4281 11.6367Z" fill="black"/>
<path d="M91.3281 35.8214C95.5697 35.5372 99.5515 33.6767 102.491 30.6057C105.43 27.5347 107.115 23.4753 107.213 19.2254C107.213 16.5974 105.413 12.2774 99.3651 11.7914V11.8364C104.369 12.3674 106.133 16.0124 106.097 18.3974C105.953 26.4164 99.7341 34.9124 91.3821 35.7674L91.3281 35.8214Z" fill="black"/>
<path d="M91.4004 35.6685C98.7894 34.9035 104.738 25.3995 104.9 17.5245C104.9 15.3915 103.541 12.4125 99.3204 11.9355V11.9895C102.641 12.4935 103.82 14.8065 103.82 16.7055C103.685 24.4185 97.8894 34.7685 91.5264 35.6055L91.4004 35.6685Z" fill="black"/>
<path d="M91.498 35.4614V35.5244C96.898 34.7414 102.469 23.3924 102.604 15.8324C102.641 14.8952 102.311 13.9804 101.684 13.2828C101.057 12.5853 100.183 12.1599 99.247 12.0974V12.1514C99.9065 12.2622 100.499 12.6194 100.905 13.1508C101.311 13.6821 101.5 14.3479 101.434 15.0134C101.227 22.4024 95.827 34.6604 91.498 35.4614ZM88.105 32.5274C88.231 25.4174 93.838 12.9254 98.005 12.0794V12.0164C92.785 12.7904 87.016 24.3374 86.881 31.6634C86.8456 32.1353 86.9052 32.6095 87.0564 33.0579C87.2076 33.5063 87.4472 33.9198 87.761 34.274C88.0749 34.6281 88.4567 34.9157 88.8837 35.1197C89.3107 35.3236 89.7743 35.4398 90.247 35.4614V35.4074C89.9163 35.3612 89.598 35.2497 89.3107 35.0794C89.0234 34.9091 88.7728 34.6835 88.5735 34.4155C88.3742 34.1475 88.2301 33.8426 88.1497 33.5184C88.0693 33.1943 88.0541 32.8574 88.105 32.5274Z" fill="black"/>
<path d="M85.811 30.8333C85.946 23.3183 91.985 12.7703 98.123 11.9333V11.8793C90.923 12.6443 84.776 22.2923 84.623 29.9693C84.623 32.1113 86.027 35.2793 90.203 35.6213V35.5673C86.945 35.1443 85.775 32.7323 85.811 30.8333Z" fill="black"/>
<path d="M83.5161 29.1415C83.6511 21.2665 90.0681 12.6265 98.1951 11.7715V11.7175C93.9886 12.0711 90.0556 13.9476 87.1343 16.9949C84.2129 20.0422 82.504 24.0508 82.3281 28.2685C82.3281 30.8965 84.1281 35.3605 90.1851 35.7565V35.7025C84.9651 35.2345 83.4801 31.4995 83.5161 29.1415Z" fill="black"/>
<path d="M81.2209 27.4495C81.3649 19.1785 88.4929 12.4105 98.2669 11.6275V11.5735C87.3229 12.2485 80.1589 18.1525 80.0149 26.5765C79.9519 29.6905 82.2289 35.4505 90.0859 35.9005C83.2279 35.3605 81.1759 30.3205 81.2209 27.4495ZM75.6589 11.7535C71.8879 11.2405 67.3339 13.4545 64.7689 17.3425L64.8139 17.4055C67.2439 13.9135 71.3479 11.8345 74.7139 12.3025C76.9819 12.6085 78.5389 14.3275 78.2239 17.7025C77.4229 26.2975 70.1779 35.9545 58.5859 35.9275V35.9905C63.7568 36.1893 68.8096 34.4124 72.7178 31.0207C76.626 27.629 79.0967 22.8769 79.6279 17.7295C79.9429 14.0035 78.2149 12.1045 75.6589 11.7535Z" fill="black"/>
<path d="M76.8641 17.6668C77.1431 14.7058 75.8201 13.1668 73.7411 12.8878C70.7441 12.4828 67.0991 14.3098 64.8941 17.5228L64.9391 17.5768C66.9641 14.8048 70.2041 13.0768 72.8051 13.4368C74.6051 13.6798 75.7931 15.0298 75.5051 17.6398C74.8121 25.0378 67.7561 35.2078 58.6211 35.7748C68.8271 35.7658 76.1081 25.7308 76.8641 17.6668Z" fill="black"/>
<path d="M58.748 35.596V35.65C67.253 34.633 73.553 24.301 74.228 17.605C74.426 15.409 73.418 14.239 71.915 14.005C69.647 13.69 66.821 15.22 65.075 17.668V17.722C66.74 15.571 69.062 14.293 70.898 14.545C72.194 14.725 72.986 15.706 72.815 17.497C72.248 23.599 66.461 33.985 58.748 35.596Z" fill="black"/>
<path d="M58.8476 35.388V35.469C65.1476 33.777 70.9886 22.869 71.4476 17.469C71.5736 16.092 70.9615 15.282 69.9535 15.147C68.4505 14.94 66.5426 16.047 65.1476 17.847V17.901C66.3086 16.515 67.8476 15.534 68.9726 15.687C69.7016 15.786 70.1785 16.425 70.0795 17.442C69.7285 22.158 64.3286 33.048 58.8476 35.388ZM57.8575 29.259C57.1879 30.7277 56.71 32.2764 56.4355 33.867C56.445 34.1675 56.533 34.4603 56.6909 34.7161C56.8489 34.972 57.0711 35.1819 57.3355 35.325C57.4223 35.3687 57.5126 35.4048 57.6055 35.433V35.352C57.4778 35.2281 57.383 35.0744 57.3295 34.9047C57.2761 34.735 57.2658 34.5547 57.2995 34.38C57.6716 32.7656 58.2178 31.1964 58.9285 29.7L70.6285 0L68.9815 0.324C69.0715 0.702 65.9125 8.469 65.7865 8.856L57.8575 29.259Z" fill="black"/>
<path d="M55.706 28.3309C55.1113 29.7559 54.6824 31.2447 54.428 32.7678C54.284 34.3968 55.706 35.2788 57.614 35.5668V35.5128C56.309 35.2788 55.301 34.6128 55.418 33.3528C55.7178 31.8097 56.1762 30.3017 56.786 28.8529L64.58 8.80085C64.769 8.26985 67.73 1.10585 67.28 0.646851L65.678 0.970851V1.06085C65.741 2.80685 63.716 7.58585 63.302 8.71085L55.706 28.3309Z" fill="black"/>
<path d="M60.8717 8.61424L53.5277 27.4152C52.9407 28.7404 52.5234 30.1345 52.2857 31.5642C52.0877 33.8592 53.9687 35.4432 57.4877 35.6862C56.7625 35.6062 56.0495 35.4401 55.3637 35.1912C54.7205 35.0351 54.1571 34.6482 53.7805 34.104C53.4039 33.5598 53.2402 32.8962 53.3207 32.2392C53.5748 30.7438 54.0163 29.2863 54.6347 27.9012L62.1227 8.65924C62.5007 7.64224 64.6427 2.78224 64.1297 1.29724L62.5817 1.60324V1.69324C63.4277 2.85424 61.3667 7.35424 60.8717 8.61424Z" fill="black"/>
<path d="M58.2077 8.99967L51.4217 26.4957C50.8616 27.7378 50.4798 29.0528 50.2877 30.4017C50.0447 33.2727 52.5377 35.6217 57.4877 35.8017C53.3387 35.5677 51.0797 33.6057 51.3047 31.0137C51.5129 29.6271 51.9127 28.2762 52.4927 26.9997L59.5037 8.99967C60.1337 7.35267 61.9967 3.31167 60.9887 1.96167L59.3957 2.28567V2.37567C60.4757 3.86067 58.9277 7.19967 58.2077 8.99967Z" fill="black"/>
<path d="M57.4159 35.911C51.8269 35.668 49.0099 32.941 49.3159 29.773C49.4825 28.5066 49.8279 27.2703 50.3419 26.101L56.8129 9.37898C57.6229 7.29098 59.1349 4.14098 57.9469 2.58398L56.4799 2.88998V2.97998C57.7309 4.38398 56.5699 6.68798 55.7149 9.01898L49.2709 25.579C48.7511 26.7191 48.414 27.934 48.2719 29.179C47.9659 32.626 51.0349 35.749 57.3979 35.938L57.4159 35.911ZM50.0539 14.833C49.9369 12.61 48.6229 11.593 47.0299 11.593C44.1319 11.593 41.6299 13.879 40.0549 16.993V15.895C39.9289 13.474 38.2549 11.593 35.2759 11.593C28.9759 11.593 25.8709 15.742 24.8359 20.44H24.8899C25.9879 16.039 28.9219 12.07 34.5829 12.07C35.125 12.0217 35.6711 12.0856 36.1873 12.2578C36.7035 12.4299 37.1787 12.7066 37.5832 13.0706C37.9878 13.4346 38.3129 13.878 38.5384 14.3733C38.7639 14.8685 38.885 15.4049 38.8939 15.949C39.0469 18.802 38.1019 21.025 37.0939 23.59L32.5039 35.587H33.7279L38.3179 23.689C38.6239 22.87 38.9119 22.105 39.1729 21.367C40.0729 19.477 41.1979 17.542 41.7829 17.542C42.2149 17.542 42.3499 17.911 42.3769 18.244C42.382 20.0351 41.9132 21.7956 41.0179 23.347L41.0719 23.401C42.4681 21.8259 43.3008 19.8312 43.4389 17.731C43.4389 17.11 43.1329 16.669 42.5389 16.669C41.5579 16.669 40.3069 18.685 39.3889 20.818C39.4969 20.476 39.5869 20.134 39.6769 19.801C40.6579 17.668 42.0169 15.85 43.2769 15.85C44.0509 15.85 44.5189 16.381 44.5639 17.254C44.6719 19.378 42.7639 22.474 41.1619 23.491L41.2159 23.545C43.3939 22.573 45.7879 19.378 45.6529 16.768C45.5899 15.607 44.9779 14.968 44.0059 14.968C42.4039 14.968 40.8559 16.831 39.7849 19.135C39.7849 18.955 39.8569 18.775 39.8839 18.586C41.0809 16.111 42.8359 14.149 44.7889 14.149C45.8509 14.149 46.6609 14.869 46.7329 16.273C46.9039 19.369 43.9789 22.663 41.3329 23.626L41.3869 23.68C44.6359 22.852 48.0289 19.369 47.8399 15.787C47.7499 14.095 46.7869 13.276 45.5359 13.276C43.2859 13.285 41.2789 15.301 40.0279 18.001V17.56C41.4589 14.662 43.7179 12.466 46.3279 12.466C47.7319 12.466 48.8929 13.366 49.0279 15.328C49.2439 19.441 45.4279 22.924 41.5399 23.797L41.5939 23.842C46.0939 23.158 50.2969 19.432 50.0539 14.833Z" fill="black"/>
<path d="M37.7695 16.0391C37.761 15.5496 37.6527 15.0671 37.4514 14.6209C37.25 14.1746 36.9598 13.7742 36.5984 13.444C36.237 13.1138 35.8121 12.8607 35.3496 12.7003C34.8871 12.5399 34.3967 12.4755 33.9085 12.5111C28.8865 12.5111 25.9975 16.2461 24.9805 20.4401H25.0435C26.1595 16.5341 28.7155 12.9971 33.2065 12.9971C33.6374 12.9571 34.072 13.0073 34.4825 13.1446C34.8929 13.282 35.2703 13.5034 35.5904 13.7947C35.9105 14.086 36.1664 14.4409 36.3417 14.8366C36.517 15.2323 36.6078 15.6603 36.6085 16.0931C36.7345 18.4601 35.6185 21.0701 34.7275 23.4461L29.9935 35.5871H31.2535L35.8885 23.5451C36.8785 21.0701 37.9045 18.6041 37.7695 16.0391Z" fill="black"/>
<path d="M35.5277 16.1379C35.5294 15.7611 35.4521 15.3881 35.301 15.043C35.1498 14.6978 34.9281 14.3881 34.65 14.1338C34.372 13.8795 34.0438 13.6862 33.6865 13.5664C33.3293 13.4465 32.9509 13.4028 32.5757 13.4379C28.6337 13.4379 26.2217 16.8399 25.1777 20.4489H25.2317C26.3387 17.0919 28.6067 13.9239 31.8827 13.9239C32.1964 13.9018 32.5112 13.9441 32.8079 14.0483C33.1046 14.1524 33.3768 14.3162 33.6078 14.5295C33.8389 14.7428 34.0238 15.0011 34.1512 15.2886C34.2786 15.576 34.3458 15.8865 34.3487 16.2009C34.4477 18.0819 33.1517 21.1329 32.2967 23.2659L27.4277 35.5869H28.7327L33.5117 23.3469C34.3577 21.1239 35.6177 18.3159 35.5277 16.1379Z" fill="black"/>
<path d="M33.232 16.281C33.2343 16.0201 33.1819 15.7617 33.0785 15.5223C32.975 15.2828 32.8226 15.0677 32.6311 14.8906C32.4396 14.7135 32.2132 14.5783 31.9664 14.4938C31.7196 14.4094 31.4579 14.3774 31.198 14.4C28.498 14.4 26.347 17.334 25.321 20.439H25.384C26.455 17.667 28.291 14.877 30.496 14.877C30.6986 14.8534 30.9038 14.874 31.0976 14.9373C31.2915 15.0006 31.4693 15.1051 31.6189 15.2436C31.7686 15.3821 31.8865 15.5514 31.9645 15.7398C32.0425 15.9282 32.0789 16.1312 32.071 16.335C32.152 17.829 30.64 21.222 29.92 23.103L24.916 35.586H26.167L31.081 23.202C31.927 21.222 33.322 18 33.232 16.281Z" fill="black"/>
<path d="M30.9647 16.4251C30.9783 16.2747 30.9589 16.1232 30.9078 15.9811C30.8566 15.8391 30.775 15.7099 30.6687 15.6027C30.5624 15.4955 30.4338 15.4129 30.2922 15.3606C30.1505 15.3083 29.9991 15.2877 29.8487 15.3001C28.2557 15.3001 26.5367 17.8111 25.5017 20.4211H25.5647C26.6087 18.0991 28.2197 15.7771 29.1647 15.7771C29.5517 15.7771 29.8037 15.9751 29.8307 16.4611C29.8847 17.4781 28.1927 21.2941 27.5087 22.9411L22.4147 35.5411H23.6747L28.7237 23.0131C29.4347 21.2671 31.0277 17.6401 30.9647 16.4251ZM17.2037 27.1081L18.0137 25.4071L15.2687 11.4031C14.5037 7.46112 15.4217 5.74212 18.5177 5.14812V5.09412H15.6557C14.8277 5.50812 13.0727 6.75012 14.0537 11.3941L17.2037 27.1081Z" fill="black"/>
<path d="M15.5837 30.4921L16.3847 28.8001L12.7847 11.3131C12.1097 7.92012 12.3977 6.15612 13.5227 5.14812V5.09412H11.5787C10.9847 6.36312 10.8047 7.63212 11.4887 10.9891L15.5837 30.4921ZM13.9277 33.8671L14.7287 32.1931L10.2287 10.9441C9.43673 7.64112 9.61673 6.12912 9.94073 5.09412H8.22173C8.20379 6.88127 8.43398 8.66226 8.90573 10.3861L13.9277 33.8671ZM6.64673 5.09412H4.62173V5.14812C5.52173 6.24612 5.79173 7.58712 6.51173 10.5481L11.9117 35.5951H13.1267L7.72673 10.4671C7.2602 8.69919 6.89956 6.905 6.64673 5.09412ZM2.59673 5.09412H0.427734V5.14812C2.40773 5.93112 3.37973 7.43412 4.16273 10.9531L9.49973 35.5861H10.7147L5.34173 10.8001C4.41473 6.49812 3.44273 5.70612 2.59673 5.09412ZM30.1907 5.09412C27.6347 6.58812 26.1137 9.35112 22.9277 16.2001L23.0087 16.2451C26.6897 9.35112 28.7867 6.60612 33.5387 5.17512V5.09412H30.1907ZM22.7477 16.0651L22.8287 16.1191C25.8527 9.00012 26.6447 7.01112 27.8777 5.14812V5.09412H25.4297V5.16612C25.6817 8.01912 24.7277 10.6471 22.7477 16.0651Z" fill="black"/>
<path d="M22.585 15.9571L22.666 16.0111C24.583 9.63012 25.204 6.81312 23.512 5.09412H21.127V5.14812C23.827 6.10212 24.385 8.82912 22.585 15.9571ZM110.227 13.2841V14.4991H110.047V13.2841H109.525V13.1131H110.767V13.2841H110.227ZM112.297 14.4991V13.3201L111.865 14.4811H111.658L111.271 13.3201V14.4991H111.1L111.154 13.1131H111.469L111.829 14.2741L112.243 13.1131H112.531L112.585 14.4991H112.297Z" fill="black"/>
</g>
<defs>
<clipPath id="clip0_2_1061">
<rect width="112.5" height="36" fill="white" transform="translate(0.427734)"/>
</clipPath>
</defs>
</svg>
